<svg width="10" height="12" viewBox="0 0 10 12" fill="none" xmlns="http://www.w3.org/2000/svg">
<path d="M6.5001 8.77778V9.33333C6.5001 10.2538 5.82851 11 5.00007 11C4.17163 11 3.50004 10.2538 3.50004 9.33333V8.77778M6.5001 8.77778H3.50004M6.5001 8.77778H8.29538C8.48664 8.77778 8.58274 8.77778 8.66018 8.74875C8.80811 8.69331 8.92387 8.56425 8.97377 8.39988C9 8.31349 9 8.20639 9 7.99219C9 7.89846 8.9999 7.8516 8.9933 7.80691C8.98083 7.72247 8.95134 7.64241 8.90642 7.5729C8.88268 7.53617 8.85251 7.50265 8.79304 7.43657L8.59828 7.22016C8.53544 7.15034 8.50013 7.05563 8.50013 6.95689V4.88889C8.50013 2.74111 6.9331 0.999995 5.00007 1C3.06704 1.00001 1.50001 2.74112 1.50001 4.88889V6.95691C1.50001 7.05565 1.46463 7.15034 1.40179 7.22016L1.20703 7.43655C1.14738 7.50283 1.11752 7.53613 1.09375 7.57292C1.04883 7.64243 1.01907 7.72246 1.0066 7.80691C1 7.8516 1 7.89847 1 7.9922C1 8.20639 1 8.31347 1.02623 8.39986C1.07613 8.56423 1.1924 8.69331 1.34034 8.74875C1.41779 8.77778 1.51352 8.77778 1.70479 8.77778H3.50004" stroke="#617A98" stroke-linecap="round" stroke-linejoin="round"/>
</svg>
