<svg width="12" height="12" viewBox="0 0 12 12" fill="none" xmlns="http://www.w3.org/2000/svg">
<path d="M8.92784 8.77778C8.30235 8.77778 7.79529 9.27524 7.79529 9.88889C7.79529 10.5025 8.30235 11 8.92784 11C9.55333 11 10.0604 10.5025 10.0604 9.88889C10.0604 9.27524 9.55333 8.77778 8.92784 8.77778ZM8.92784 8.77778H4.5641C4.30301 8.77778 4.17223 8.77778 4.06474 8.73221C3.96991 8.692 3.88765 8.62729 3.82771 8.54475C3.76053 8.45223 3.73351 8.32851 3.68003 8.08363L2.28628 1.70258C2.23155 1.45202 2.20382 1.32688 2.13587 1.23329C2.07593 1.15075 1.99368 1.08578 1.89886 1.04558C1.79134 1 1.66129 1 1.40009 1H1M2.69882 2.66667H9.9886C10.3973 2.66667 10.6015 2.66667 10.7387 2.7502C10.8588 2.82337 10.9468 2.93812 10.9851 3.07167C11.0289 3.22413 10.9727 3.41665 10.8594 3.80192L10.0753 6.46859C10.0076 6.69894 9.97371 6.81391 9.90499 6.89938C9.84434 6.97483 9.76434 7.03389 9.67365 7.07015C9.5712 7.11111 9.44944 7.11111 9.2065 7.11111H3.67874M3.83137 11C3.20588 11 2.69882 10.5025 2.69882 9.88889C2.69882 9.27524 3.20588 8.77778 3.83137 8.77778C4.45686 8.77778 4.96392 9.27524 4.96392 9.88889C4.96392 10.5025 4.45686 11 3.83137 11Z" stroke="#617A98" stroke-linecap="round" stroke-linejoin="round"/>
</svg>
