<svg width="20" height="20" viewBox="0 0 20 20" fill="none" xmlns="http://www.w3.org/2000/svg">
<path d="M15.1703 15C14.0658 15 13.1703 15.8954 13.1703 17C13.1703 18.1046 14.0658 19 15.1703 19C16.2749 19 17.1703 18.1046 17.1703 17C17.1703 15.8954 16.2749 15 15.1703 15ZM15.1703 15H7.46429C7.00323 15 6.77228 15 6.58246 14.918C6.41501 14.8456 6.26973 14.7291 6.16389 14.5805C6.04525 14.414 5.99754 14.1913 5.90309 13.7505L3.44183 2.26465C3.34519 1.81363 3.29622 1.58838 3.17621 1.41992C3.07036 1.27135 2.92512 1.15441 2.75767 1.08205C2.5678 1 2.33814 1 1.87688 1H1.17035M4.17035 4H17.0436C17.7653 4 18.1259 4 18.3681 4.15036C18.5803 4.28206 18.7357 4.48862 18.8034 4.729C18.8807 5.00343 18.7814 5.34996 18.5813 6.04346L17.1967 10.8435C17.0771 11.2581 17.0173 11.465 16.8959 11.6189C16.7888 11.7547 16.6476 11.861 16.4874 11.9263C16.3065 12 16.0915 12 15.6624 12H5.90082M6.17035 19C5.06578 19 4.17035 18.1046 4.17035 17C4.17035 15.8954 5.06578 15 6.17035 15C7.27492 15 8.17035 15.8954 8.17035 17C8.17035 18.1046 7.27492 19 6.17035 19Z" stroke="white" stroke-linecap="round" stroke-linejoin="round"/>
</svg>
