<svg width="99" height="68" viewBox="0 0 99 68" fill="none" xmlns="http://www.w3.org/2000/svg">
<path d="M10.728 57.324C9 57.324 7.428 56.916 6.012 56.1C4.62 55.26 3.504 54.132 2.664 52.716C1.848 51.3 1.44 49.716 1.44 47.964C1.44 46.236 1.836 44.676 2.628 43.284C3.42 41.868 4.488 40.752 5.832 39.936C7.176 39.096 8.676 38.676 10.332 38.676C11.94 38.676 13.38 39.096 14.652 39.936C15.948 40.752 16.968 41.868 17.712 43.284C18.48 44.676 18.864 46.236 18.864 47.964V48.792H4.068C4.212 49.968 4.584 51.024 5.184 51.96C5.808 52.896 6.612 53.64 7.596 54.192C8.58 54.72 9.66 54.984 10.836 54.984C11.772 54.984 12.684 54.84 13.572 54.552C14.46 54.264 15.204 53.856 15.804 53.328L17.46 55.092C16.452 55.836 15.396 56.4 14.292 56.784C13.212 57.144 12.024 57.324 10.728 57.324ZM4.14 46.668H16.2C16.056 45.588 15.696 44.628 15.12 43.788C14.568 42.924 13.872 42.252 13.032 41.772C12.192 41.268 11.268 41.016 10.26 41.016C9.228 41.016 8.28 41.256 7.416 41.736C6.552 42.216 5.832 42.888 5.256 43.752C4.68 44.592 4.308 45.564 4.14 46.668ZM34.9723 57.396C33.1483 57.396 31.4443 57.072 29.8603 56.424C28.2763 55.752 26.8843 54.828 25.6843 53.652C24.4843 52.452 23.5483 51.072 22.8763 49.512C22.2283 47.928 21.9043 46.224 21.9043 44.4C21.9043 42.576 22.2283 40.884 22.8763 39.324C23.5483 37.74 24.4843 36.36 25.6843 35.184C26.8843 33.984 28.2763 33.06 29.8603 32.412C31.4443 31.74 33.1483 31.404 34.9723 31.404C36.2923 31.404 37.5523 31.572 38.7523 31.908C39.9763 32.22 41.1043 32.688 42.1363 33.312C43.1923 33.912 44.1283 34.656 44.9443 35.544L43.1083 37.488C42.1243 36.36 40.9123 35.496 39.4723 34.896C38.0323 34.272 36.5323 33.96 34.9723 33.96C33.5083 33.96 32.1523 34.224 30.9043 34.752C29.6563 35.28 28.5643 36.024 27.6283 36.984C26.7163 37.92 25.9963 39.024 25.4683 40.296C24.9643 41.544 24.7123 42.912 24.7123 44.4C24.7123 45.864 24.9643 47.232 25.4683 48.504C25.9963 49.776 26.7283 50.892 27.6643 51.852C28.6003 52.788 29.6923 53.52 30.9403 54.048C32.2123 54.576 33.5803 54.84 35.0443 54.84C36.6043 54.84 38.0923 54.54 39.5083 53.94C40.9243 53.316 42.1123 52.464 43.0723 51.384L44.8723 53.256C44.0323 54.12 43.0843 54.864 42.0283 55.488C40.9963 56.112 39.8803 56.592 38.6803 56.928C37.4803 57.24 36.2443 57.396 34.9723 57.396ZM56.4294 57.36C54.7254 57.36 53.1654 56.952 51.7494 56.136C50.3574 55.296 49.2534 54.168 48.4374 52.752C47.6214 51.336 47.2134 49.752 47.2134 48C47.2134 46.248 47.6214 44.664 48.4374 43.248C49.2534 41.832 50.3574 40.716 51.7494 39.9C53.1654 39.06 54.7254 38.64 56.4294 38.64C58.1574 38.64 59.7174 39.06 61.1094 39.9C62.5014 40.716 63.6054 41.832 64.4214 43.248C65.2374 44.664 65.6454 46.248 65.6454 48C65.6454 49.752 65.2374 51.336 64.4214 52.752C63.6054 54.168 62.5014 55.296 61.1094 56.136C59.7174 56.952 58.1574 57.36 56.4294 57.36ZM56.4294 54.984C57.6534 54.984 58.7574 54.672 59.7414 54.048C60.7494 53.424 61.5414 52.584 62.1174 51.528C62.7174 50.472 63.0174 49.296 63.0174 48C63.0174 46.68 62.7174 45.504 62.1174 44.472C61.5414 43.416 60.7494 42.576 59.7414 41.952C58.7574 41.328 57.6534 41.016 56.4294 41.016C55.2054 41.016 54.0894 41.328 53.0814 41.952C52.0974 42.576 51.3054 43.416 50.7054 44.472C50.1294 45.504 49.8414 46.68 49.8414 48C49.8414 49.296 50.1294 50.472 50.7054 51.528C51.3054 52.584 52.0974 53.424 53.0814 54.048C54.0894 54.672 55.2054 54.984 56.4294 54.984ZM69.3461 57V38.964H72.0101V40.944C73.3781 39.384 75.1421 38.604 77.3021 38.604C78.5741 38.604 79.7021 38.904 80.6861 39.504C81.6701 40.08 82.4381 40.872 82.9901 41.88C83.7341 40.776 84.6221 39.96 85.6541 39.432C86.6861 38.88 87.8621 38.604 89.1821 38.604C90.5021 38.604 91.6541 38.904 92.6381 39.504C93.6221 40.08 94.3901 40.896 94.9421 41.952C95.5181 42.984 95.8061 44.196 95.8061 45.588V57H93.1781V46.128C93.1781 44.52 92.7581 43.26 91.9181 42.348C91.0781 41.412 89.9381 40.944 88.4981 40.944C87.5141 40.944 86.6141 41.196 85.7981 41.7C84.9821 42.18 84.2861 42.912 83.7101 43.896C83.7581 44.16 83.7941 44.436 83.8181 44.724C83.8661 44.988 83.8901 45.276 83.8901 45.588V57H81.2621V46.128C81.2621 44.52 80.8421 43.26 80.0021 42.348C79.1621 41.412 78.0341 40.944 76.6181 40.944C75.6581 40.944 74.7821 41.172 73.9901 41.628C73.2221 42.06 72.5621 42.708 72.0101 43.572V57H69.3461Z" fill="#EC4D37"/>
<path d="M57.0268 19.6667H46.5538C45.9272 19.6667 45.6133 19.6667 45.3554 19.5573C45.1278 19.4608 44.9304 19.3055 44.7865 19.1074C44.6253 18.8853 44.5604 18.5884 44.4321 18.0007L41.0871 2.6862C40.9557 2.08485 40.8892 1.7845 40.7261 1.5599C40.5822 1.3618 40.3848 1.20588 40.1573 1.1094C39.8992 1 39.5871 1 38.9602 1H38M42.0772 5H59.5726C60.5536 5 61.0435 5 61.3728 5.20048C61.6612 5.37608 61.8723 5.65149 61.9643 5.97201C62.0694 6.33791 61.9344 6.79995 61.6625 7.72461L59.7808 14.1246C59.6182 14.6775 59.5369 14.9534 59.372 15.1585C59.2264 15.3396 59.0344 15.4813 58.8168 15.5684C58.5709 15.6667 58.2787 15.6667 57.6956 15.6667H44.429" stroke="#2D2D2D" stroke-width="2" stroke-linecap="round" stroke-linejoin="round"/>
</svg>
