<svg width="12" height="12" viewBox="0 0 12 12" fill="none" xmlns="http://www.w3.org/2000/svg">
<path d="M10.1766 4.36811L9.99341 4.26007C9.96497 4.24329 9.95098 4.23487 9.93724 4.22614C9.80064 4.13938 9.68551 4.01951 9.60149 3.8761C9.59303 3.86167 9.58507 3.84654 9.56878 3.81663C9.5525 3.78676 9.54426 3.77163 9.53669 3.75664C9.46132 3.60744 9.42056 3.44117 9.41812 3.27194C9.41787 3.25492 9.41793 3.23754 9.41848 3.20298L9.42206 2.97744C9.42779 2.61652 9.43066 2.4355 9.38282 2.27304C9.34033 2.12874 9.26924 1.99583 9.17432 1.88304C9.06702 1.75554 8.91849 1.66458 8.62113 1.48289L8.37413 1.33197C8.07759 1.15079 7.92927 1.06017 7.77184 1.02562C7.63257 0.995053 7.48883 0.996469 7.35006 1.0295C7.19343 1.06678 7.04697 1.15977 6.75422 1.34563L6.75256 1.34647L6.57558 1.45883C6.54759 1.4766 6.53343 1.48556 6.5194 1.49382C6.38021 1.57588 6.22482 1.62125 6.06564 1.62667C6.0496 1.62722 6.03328 1.62722 6.00065 1.62722C5.96822 1.62722 5.9512 1.62722 5.93519 1.62667C5.77567 1.62123 5.61996 1.57561 5.48055 1.49322C5.4665 1.48491 5.4526 1.47588 5.42455 1.45803L5.24645 1.34466C4.9517 1.15704 4.8041 1.06308 4.6466 1.02562C4.50726 0.992469 4.36304 0.991552 4.22325 1.02251C4.06542 1.05746 3.91706 1.14876 3.62036 1.33135L3.61904 1.33197L3.37511 1.48208L3.37241 1.48383C3.07838 1.66478 2.931 1.75547 2.82461 1.88245C2.73019 1.99512 2.65962 2.12783 2.61737 2.27175C2.56963 2.43443 2.57217 2.61583 2.57793 2.97846L2.5815 3.20368C2.58204 3.23778 2.58298 3.25473 2.58275 3.27151C2.58038 3.44108 2.53907 3.60769 2.46349 3.75716C2.45601 3.77194 2.44796 3.78672 2.43187 3.81625C2.41578 3.8458 2.40798 3.86049 2.39964 3.87475C2.31524 4.01893 2.19958 4.13949 2.06213 4.2264C2.04853 4.235 2.0342 4.24326 2.00605 4.25981L1.82519 4.36607C1.52429 4.54288 1.37388 4.63136 1.26443 4.75727C1.1676 4.86866 1.09446 5.00079 1.04981 5.14468C0.999341 5.30734 0.999383 5.48974 1.00016 5.8545L1.0008 6.15263C1.00158 6.51495 1.00264 6.69599 1.05323 6.85755C1.09798 7.00048 1.17059 7.13182 1.26687 7.24254C1.3757 7.36769 1.52462 7.45562 1.82324 7.63176L2.00248 7.73749C2.03298 7.75548 2.04833 7.76436 2.06304 7.77376C2.19925 7.86072 2.314 7.98096 2.39768 8.12431C2.40672 8.1398 2.4154 8.15587 2.43275 8.18802C2.44989 8.21977 2.45866 8.23564 2.46659 8.25155C2.53995 8.39882 2.57923 8.56246 2.58191 8.72899C2.5822 8.74698 2.58195 8.76518 2.58137 8.80176L2.57793 9.01789C2.57213 9.38176 2.56961 9.5639 2.61764 9.72703C2.66013 9.87134 2.73114 10.0042 2.82607 10.117C2.93338 10.2445 3.08213 10.3354 3.37951 10.5171L3.62646 10.668C3.923 10.8492 4.07122 10.9397 4.22865 10.9743C4.36792 11.0048 4.51174 11.0036 4.65051 10.9706C4.80736 10.9333 4.95433 10.84 5.24791 10.6536L5.42489 10.5412C5.45289 10.5234 5.46707 10.5145 5.4811 10.5063C5.62029 10.4242 5.77552 10.3786 5.9347 10.3732C5.95074 10.3726 5.96706 10.3726 5.99969 10.3726C6.0324 10.3726 6.0487 10.3726 6.06478 10.3732C6.2243 10.3786 6.38048 10.4244 6.51989 10.5068C6.53216 10.514 6.54445 10.5218 6.56603 10.5356L6.75417 10.6554C7.04896 10.843 7.19624 10.9367 7.35375 10.9742C7.49309 11.0073 7.63743 11.0087 7.77722 10.9777C7.93501 10.9428 8.08366 10.8513 8.3802 10.6688L8.6278 10.5164C8.92202 10.3354 9.06955 10.2446 9.17599 10.1175C9.2704 10.0049 9.34107 9.87223 9.38331 9.72831C9.43071 9.56681 9.42785 9.3868 9.42218 9.02941L9.41848 8.79632C9.41794 8.76221 9.41788 8.74525 9.41811 8.72847C9.42048 8.55889 9.4611 8.39217 9.53669 8.2427C9.54415 8.22794 9.55227 8.21305 9.5683 8.18361C9.5844 8.15407 9.59273 8.13935 9.60108 8.12509C9.68547 7.98091 9.80124 7.86024 9.9387 7.77333C9.95213 7.76484 9.96596 7.75671 9.99344 7.74056L9.99439 7.7401L10.1752 7.63384C10.4761 7.45703 10.6268 7.36846 10.7363 7.24254C10.8331 7.13115 10.9062 6.99921 10.9508 6.85531C11.001 6.69361 11.0006 6.51227 10.9998 6.15178L10.9992 5.84725C10.9984 5.48493 10.998 5.30391 10.9474 5.14235C10.9026 4.99942 10.8296 4.86807 10.7333 4.75735C10.6246 4.63233 10.4746 4.54391 10.1766 4.36811Z" stroke="#617A98" stroke-linecap="round" stroke-linejoin="round"/>
<path d="M3.99938 6.00004C3.99938 7.17167 4.89516 8.12146 6.00016 8.12146C7.10516 8.12146 8.00094 7.17167 8.00094 6.00004C8.00094 4.82841 7.10516 3.87861 6.00016 3.87861C4.89516 3.87861 3.99938 4.82841 3.99938 6.00004Z" stroke="#617A98" stroke-linecap="round" stroke-linejoin="round"/>
</svg>
