<svg width="14" height="14" viewBox="0 0 14 14" fill="none" xmlns="http://www.w3.org/2000/svg">
<path d="M1.09839 5.89373C0.90712 5.70825 1.01102 5.37293 1.26972 5.34076L4.93541 4.88481C5.04084 4.8717 5.13243 4.80227 5.1769 4.70117L6.72303 1.18608C6.83215 0.938005 7.16845 0.937958 7.27757 1.18603L8.82371 4.70109C8.86818 4.8022 8.95916 4.87182 9.0646 4.88493L12.7305 5.34076C12.9892 5.37293 13.0928 5.70835 12.9015 5.89383L10.1917 8.52223C10.1137 8.59783 10.079 8.71035 10.0997 8.81956L10.8189 12.6163C10.8697 12.8843 10.5977 13.0919 10.3704 12.9584L7.14939 11.0672C7.05674 11.0128 6.94418 11.0131 6.85153 11.0675L3.63016 12.958C3.40283 13.0914 3.1304 12.8843 3.18117 12.6163L3.90047 8.81979C3.92116 8.71059 3.88654 8.5978 3.80859 8.52221L1.09839 5.89373Z" stroke="#EC4D37" stroke-linecap="round" stroke-linejoin="round"/>
</svg>
